<svg xmlns="http://www.w3.org/2000/svg" viewBox="0 0 400 300">
  <defs>
    <linearGradient id="skyGrad2" x1="0%" y1="0%" x2="0%" y2="100%">
      <stop offset="0%" style="stop-color:#FFB347"/>
      <stop offset="100%" style="stop-color:#FFCC80"/>
    </linearGradient>
  </defs>
  <rect width="400" height="300" fill="url(#skyGrad2)"/>
  <!-- Ground -->
  <rect y="230" width="400" height="70" fill="#D2B48C"/>
  <!-- Colosseum structure -->
  <ellipse cx="200" cy="180" rx="150" ry="60" fill="#C4A484"/>
  <ellipse cx="200" cy="180" rx="130" ry="50" fill="#D4B494"/>
  <!-- Arches - bottom row -->
  <rect x="70" y="160" width="20" height="35" rx="10" fill="#8B7355"/>
  <rect x="100" y="160" width="20" height="35" rx="10" fill="#8B7355"/>
  <rect x="130" y="160" width="20" height="35" rx="10" fill="#8B7355"/>
  <rect x="160" y="160" width="20" height="35" rx="10" fill="#8B7355"/>
  <rect x="190" y="160" width="20" height="35" rx="10" fill="#8B7355"/>
  <rect x="220" y="160" width="20" height="35" rx="10" fill="#8B7355"/>
  <rect x="250" y="160" width="20" height="35" rx="10" fill="#8B7355"/>
  <rect x="280" y="160" width="20" height="35" rx="10" fill="#8B7355"/>
  <rect x="310" y="160" width="20" height="35" rx="10" fill="#8B7355"/>
  <!-- Upper structure -->
  <ellipse cx="200" cy="140" rx="120" ry="40" fill="#D4B494"/>
  <!-- Arches - top row -->
  <rect x="90" y="120" width="15" height="25" rx="7" fill="#8B7355"/>
  <rect x="115" y="120" width="15" height="25" rx="7" fill="#8B7355"/>
  <rect x="140" y="120" width="15" height="25" rx="7" fill="#8B7355"/>
  <rect x="165" y="120" width="15" height="25" rx="7" fill="#8B7355"/>
  <rect x="190" y="120" width="15" height="25" rx="7" fill="#8B7355"/>
  <rect x="215" y="120" width="15" height="25" rx="7" fill="#8B7355"/>
  <rect x="240" y="120" width="15" height="25" rx="7" fill="#8B7355"/>
  <rect x="265" y="120" width="15" height="25" rx="7" fill="#8B7355"/>
  <rect x="290" y="120" width="15" height="25" rx="7" fill="#8B7355"/>
  <!-- Text label -->
  <rect x="50" y="265" width="300" height="30" rx="5" fill="rgba(0,0,0,0.6)"/>
  <text x="200" y="287" font-family="Arial, sans-serif" font-size="16" fill="white" text-anchor="middle" font-weight="bold">COLOSSEUM</text>
</svg>

